# xmcd
#
# Track frame offsets: 
#        150
#        12230
#        24945
#        38417
#        51637
#        64697
#        78255
#        92260
#        103585
#        118352
#        131307
#        144887
#        158825
#        173337
#        184360
#        197700
#        209137
#        222357
#        236347
#        247955
#        262845
#        276187
#        287650
#        298330
#
# Disc length: 4161 seconds
#
# Revision: 1
# Processed by: cddbd v1.5.2PL0 Copyright (c) Steve Scherf et al.
# Submitted via: ExactAudioCopy v1.1
#
DISCID=54103f18
DTITLE=Various Artist - Golden Era of Doo-Wops - Red Robin Pt. 1
DYEAR=1994
DGENRE=R&B
TTITLE0=The Scarlets - Darling I'm Yours (mono)
TTITLE1=The Vocaleers - Love You (mono)
TTITLE2=The Topps - I've Got A Feeling (mono)
TTITLE3=The Velvets - I Cried (mono)
TTITLE4=The Du-Droppers - Can't Do Sixty No More (mono)
TTITLE5=The Vocaleers - How Soon (mono)
TTITLE6=The Scarlets - Dear One (mono)
TTITLE7=The Velvets - She's Gotta Grin (mono)
TTITLE8=The Mello-Moods - Where Are You (mono)
TTITLE9=The Vocaleers - Angel Face (mono)
TTITLE10=The Scarlets - True Love (mono)
TTITLE11=The Rainbows - Evening (78 version) (mono)
TTITLE12=Charles and Carl - Lucky Star (mono)
TTITLE13=The Vocaleers - Lovin' Baby (mono)
TTITLE14=The Du-Droppers - Chain Me Baby (mono)
TTITLE15=The Scarlets - Cry Baby (mono)
TTITLE16=The Velvets - Tell Her (mono)
TTITLE17=The Sequins - Don't Fall In Love (mono)
TTITLE18=The Topps - Tippin' (mono)
TTITLE19=The Vocaleers - Be True (mono)
TTITLE20=The Mello-Moods - And You Just Can't Go Through Life Alone (m
TTITLE20=ono)
TTITLE21=The Rainbows - Mary Lee (mono)
TTITLE22=Charles and Carl - One More Chance (mono)
TTITLE23=The Velvets - I (78 version) (mono)
EXTD=
EXTT0=
EXTT1=
EXTT2=
EXTT3=
EXTT4=
EXTT5=
EXTT6=
EXTT7=
EXTT8=
EXTT9=
EXTT10=
EXTT11=
EXTT12=
EXTT13=
EXTT14=
EXTT15=
EXTT16=
EXTT17=
EXTT18=
EXTT19=
EXTT20=
EXTT21=
EXTT22=
EXTT23=
PLAYORDER=
